<svg width="192" height="180" viewBox="0 0 192 180" fill="none" xmlns="http://www.w3.org/2000/svg">
<path fill-rule="evenodd" clip-rule="evenodd" d="M69.871 12.5004C131.471 12.1006 149.371 52.5005 149.371 74.0004V150.614C149.371 160.315 143.736 169.109 134.932 173.185C126.947 176.881 117.757 176.96 109.71 173.403L95.7089 167.213C82.4166 161.337 67.2811 161.24 53.915 166.947L42.2656 171.921C34.7082 175.148 26.124 174.947 18.7255 171.371C7.50194 165.947 0.370266 154.598 0.370059 142.132C0.37 120.593 0.370857 87.8531 0.371036 74.0004C0.371313 52.5003 8.27104 12.9004 69.871 12.5004ZM64.3701 69.5004C64.3701 56.5217 53.8488 63.5004 40.8701 63.5004C27.8914 63.5004 17.3701 56.5217 17.3701 69.5004C17.3702 82.479 27.8915 93.0004 40.8701 93.0004C53.8487 93.0004 64.3699 82.479 64.3701 69.5004ZM101.87 48.0004C88.8914 48.0004 78.3701 56.5217 78.3701 69.5004C78.3703 82.4789 88.8915 93.0004 101.87 93.0004C114.849 93.0004 125.37 82.4789 125.37 69.5004C125.37 56.5217 114.849 48.0004 101.87 48.0004Z" fill="#EFB2B2"/>
<path d="M168.26 42.77C167.42 42.77 166.743 42.5367 166.23 42.07C165.717 41.5567 165.483 40.74 165.53 39.62C165.717 36.68 166.417 34.0667 167.63 31.78C168.843 29.4933 170.873 26.9267 173.72 24.08C176.38 21.4667 178.293 19.25 179.46 17.43C180.627 15.61 181.21 13.72 181.21 11.76C181.21 8.54 179.413 6.93 175.82 6.93C173.673 6.93 172.04 7.42 170.92 8.4C169.8 9.33333 169.24 10.5233 169.24 11.97L169.31 14.84C169.31 15.6333 169.007 16.3333 168.4 16.94C167.84 17.5 166.93 17.78 165.67 17.78C164.223 17.78 163.103 17.36 162.31 16.52C161.563 15.6333 161.19 14.3967 161.19 12.81C161.19 10.4767 161.75 8.35333 162.87 6.44C164.037 4.48 165.787 2.91667 168.12 1.75C170.453 0.583333 173.323 0 176.73 0C181.35 0 184.92 1.00333 187.44 3.01C190.007 4.97 191.29 7.81667 191.29 11.55C191.29 14.49 190.543 17.15 189.05 19.53C187.557 21.91 185.317 24.3833 182.33 26.95C179.81 29.0967 177.897 30.8467 176.59 32.2C175.283 33.5533 174.327 34.7433 173.72 35.77C173.16 36.75 172.693 37.8933 172.32 39.2C171.993 40.4133 171.457 41.3233 170.71 41.93C170.01 42.49 169.193 42.77 168.26 42.77ZM165.6 59.5C163.547 59.5 161.983 58.94 160.91 57.82C159.883 56.7 159.37 55.23 159.37 53.41C159.37 51.31 159.953 49.63 161.12 48.37C162.333 47.11 164.013 46.48 166.16 46.48C168.213 46.48 169.753 46.9933 170.78 48.02C171.853 49 172.39 50.47 172.39 52.43C172.39 54.5767 171.783 56.3033 170.57 57.61C169.357 58.87 167.7 59.5 165.6 59.5Z" fill="#EFB2B2"/>
</svg>
